# xmcd
#
# Track frame offsets:
#	150
#	16682
#	38373
#	56093
#	75707
#	87720
#	106001
#	123385
#
# Disc length: 1913 seconds
#
# Revision: 0
# Processed by: cddbd v1.5.2PL0 Copyright (c) Steve Scherf et al.
# Submitted via: EasyCDDAExtractor 11.0.2.1
#
DISCID=55077708
DTITLE=Dice - Red Rain
DYEAR=2002
DGENRE=Rap
TTITLE0=Red Rain
TTITLE1=Apt. 3 (Pt. 3 Feat. Razzaq)
TTITLE2=Spiritual Warfare
TTITLE3=Apt. 3 (Pt. 4 Feat. Razzaq)
TTITLE4=Smoketown U.S.A. 2002/Han-Out
TTITLE5=Cocaine (Remix)
TTITLE6=So Many Rainy Dayz (Feat. Debbie Wright)
TTITLE7=Yae Yo (Feat. Kweenie-Lox)
EXTD=
EXTT0=
EXTT1=
EXTT2=
EXTT3=
EXTT4=
EXTT5=
EXTT6=
EXTT7=
PLAYORDER=
